<svg width="91" height="90" viewBox="0 0 91 90" fill="none" xmlns="http://www.w3.org/2000/svg">
<g clip-path="url(#clip0)">
<path d="M37.303 23.9761L39.5147 22.4821C40.0721 22.1041 40.3958 21.4921 40.3958 20.8261V16.3261C40.3958 12.7621 38.3099 9.52212 35.1632 7.99212V2.61012C35.1632 1.49412 34.2642 0.594116 33.1493 0.594116C32.0345 0.594116 31.1354 1.49412 31.1354 2.61012V9.36012C31.1354 10.2601 31.7288 11.0341 32.5919 11.2861C34.8216 11.9341 36.368 14.0041 36.368 16.3081V19.7281L1.62815 43.3441C1.07073 43.7221 0.74707 44.3341 0.74707 45.0001C0.74707 45.6661 1.07073 46.2961 1.62815 46.6561L36.3859 70.2541V73.6741C36.3859 75.9961 34.8396 78.0661 32.6099 78.6961C31.7468 78.9481 31.1534 79.7221 31.1534 80.6221V87.3721C31.1534 88.4881 32.0525 89.3881 33.1673 89.3881C34.2821 89.3881 35.1812 88.4881 35.1812 87.3721V81.9901C38.3279 80.4601 40.4138 77.2381 40.4138 73.6561V69.1561C40.4138 68.4901 40.0901 67.8601 39.5327 67.5001L37.321 66.0061C47.84 54.0361 47.84 35.9641 37.303 23.9761ZM39.191 55.4221C35.1093 53.6221 32.3941 49.5541 32.3941 45.0001C32.3941 40.4461 35.1273 36.3601 39.191 34.5781C39.8563 36.2521 40.3598 37.9621 40.7015 39.7081C38.8674 40.7881 37.6446 42.7861 37.6446 45.0001C37.6446 47.2141 38.8494 49.2121 40.7015 50.2921C40.3598 52.0381 39.8563 53.7661 39.191 55.4221ZM6.32126 45.0001L33.9585 26.2441C35.3071 27.7201 36.4579 29.3041 37.4289 30.9601C31.9985 33.4261 28.3843 38.8801 28.3843 45.0001C28.3843 51.1201 31.9985 56.5741 37.4289 59.0401C36.4579 60.6961 35.3071 62.2801 33.9585 63.7561L6.32126 45.0001Z" fill="#7BBCCD"/>
<path d="M25.5075 73.8363L3.87599 59.1483C2.95895 58.5183 1.71824 58.7703 1.0889 59.6883C0.459552 60.6063 0.71129 61.8483 1.62833 62.4783L23.2778 77.1663C23.6194 77.4003 24.015 77.5083 24.3926 77.5083C25.0399 77.5083 25.6693 77.2023 26.0469 76.6263C26.6762 75.7083 26.4245 74.4663 25.5075 73.8363Z" fill="#7BBCCD"/>
<path d="M2.74308 31.1942C3.13867 31.1942 3.51628 31.0862 3.85792 30.8522L25.5074 16.1642C26.4244 15.5342 26.6582 14.2922 26.0468 13.3742C25.4175 12.4562 24.1768 12.2222 23.2597 12.8342L1.62824 27.5222C0.7112 28.1522 0.477443 29.3942 1.08881 30.3122C1.48439 30.8882 2.11374 31.1942 2.74308 31.1942Z" fill="#7BBCCD"/>
<path d="M63.3755 13.032H55.176C54.0612 13.032 53.1621 13.932 53.1621 15.048V74.97C53.1621 76.086 54.0612 76.986 55.176 76.986H63.3755C64.0947 76.986 64.76 76.59 65.1197 75.96C70.4241 66.564 73.2292 55.872 73.2292 45.018C73.2292 34.164 70.4241 23.472 65.1197 14.076C64.76 13.428 64.0947 13.032 63.3755 13.032ZM62.1887 72.954H57.1899V17.046H62.1887C66.7919 25.596 69.2194 35.226 69.2194 45C69.2194 54.774 66.7919 64.404 62.1887 72.954Z" fill="#7BBCCD"/>
<path d="M80.1877 22.0141H87.4342C88.549 22.0141 89.4481 21.1141 89.4481 19.9981C89.4481 18.8821 88.549 17.9821 87.4342 17.9821H80.1877C79.0729 17.9821 78.1738 18.8821 78.1738 19.9981C78.1738 21.1321 79.0729 22.0141 80.1877 22.0141Z" fill="#7BBCCD"/>
<path d="M87.4342 30.4921H80.1877C79.0729 30.4921 78.1738 31.3921 78.1738 32.5081C78.1738 33.6241 79.0729 34.5241 80.1877 34.5241H87.4342C88.549 34.5241 89.4481 33.6241 89.4481 32.5081C89.4301 31.3921 88.531 30.4921 87.4342 30.4921Z" fill="#7BBCCD"/>
<path d="M87.4342 42.9841H80.1877C79.0729 42.9841 78.1738 43.8841 78.1738 45.0001C78.1738 46.1161 79.0729 47.0161 80.1877 47.0161H87.4342C88.549 47.0161 89.4481 46.1161 89.4481 45.0001C89.4301 43.8841 88.531 42.9841 87.4342 42.9841Z" fill="#7BBCCD"/>
<path d="M87.4342 55.4762H80.1877C79.0729 55.4762 78.1738 56.3762 78.1738 57.4922C78.1738 58.6082 79.0729 59.5082 80.1877 59.5082H87.4342C88.549 59.5082 89.4481 58.6082 89.4481 57.4922C89.4301 56.3762 88.531 55.4762 87.4342 55.4762Z" fill="#7BBCCD"/>
<path d="M87.4342 67.9862H80.1877C79.0729 67.9862 78.1738 68.8862 78.1738 70.0022C78.1738 71.1182 79.0729 72.0182 80.1877 72.0182H87.4342C88.549 72.0182 89.4481 71.1182 89.4481 70.0022C89.4301 68.8682 88.531 67.9862 87.4342 67.9862Z" fill="#7BBCCD"/>
</g>
<defs>
<clipPath id="clip0">
<rect width="89.9063" height="90" fill="white" transform="translate(0.135254)"/>
</clipPath>
</defs>
</svg>
