<svg width="87" height="86" viewBox="0 0 87 86" fill="none" xmlns="http://www.w3.org/2000/svg">
<g clip-path="url(#clip0)">
<path d="M28.2754 33.1446C28.2754 41.7618 35.2857 48.7622 43.8767 48.7622C52.485 48.7622 59.4781 41.7446 59.4781 33.1446C59.4781 24.5274 52.4678 17.5098 43.8767 17.5098C35.2685 17.527 28.2754 24.5274 28.2754 33.1446ZM55.6465 33.1446C55.6465 39.6462 50.3544 44.9438 43.8767 44.9438C37.3819 44.9438 32.0898 39.6462 32.0898 33.1446C32.0898 26.643 37.3819 21.3454 43.8767 21.3454C50.3716 21.3626 55.6465 26.643 55.6465 33.1446Z" fill="#7BBCCD"/>
<path d="M36.7803 33.1445C36.7803 37.0661 39.959 40.2481 43.8765 40.2481C47.794 40.2481 50.9727 37.0661 50.9727 33.1445C50.9727 29.2229 47.794 26.0409 43.8765 26.0409C39.959 26.0409 36.7803 29.2401 36.7803 33.1445ZM47.1411 33.1445C47.1411 34.9505 45.6806 36.4125 43.8765 36.4125C42.0724 36.4125 40.6119 34.9505 40.6119 33.1445C40.6119 31.3385 42.0724 29.8765 43.8765 29.8765C45.6806 29.8765 47.1411 31.3557 47.1411 33.1445Z" fill="#7BBCCD"/>
<path d="M46.7123 52.4601C45.7501 52.5461 44.8051 52.5805 43.8772 52.5805C25.7845 52.5805 10.2518 37.6337 6.02505 33.1789C10.2518 28.7069 25.7501 13.7773 43.8772 13.7773C61.97 13.7773 77.5026 28.7241 81.7294 33.1789C80.1143 34.8988 76.8325 38.1497 72.3995 41.5037C71.5576 42.1401 71.3858 43.3441 72.0215 44.1869C72.6572 45.0297 73.86 45.2017 74.7019 44.5653C81.4717 39.4569 85.5954 34.6237 85.7672 34.4173C86.3686 33.6949 86.3686 32.6457 85.7672 31.9405C85.4407 31.5449 81.7466 27.2793 75.7844 22.6009L78.8256 18.8857C79.4957 18.0601 79.3755 16.8561 78.5507 16.1853C77.726 15.5145 76.5232 15.6349 75.8531 16.4605L72.726 20.2961C69.4957 18.0085 65.7844 15.7725 61.6951 13.9665L64.3755 7.67125C64.7878 6.69085 64.3411 5.57285 63.3617 5.16005C62.3824 4.74725 61.2655 5.19445 60.8531 6.17485L58.1384 12.5389C54.2724 11.1457 50.1315 10.2169 45.8016 9.99325V2.51125C45.8016 1.44485 44.9425 0.602051 43.8944 0.602051C42.8291 0.602051 41.9872 1.46205 41.9872 2.51125V9.99325C37.6573 10.2169 33.5164 11.1629 29.6504 12.5389L26.9357 6.15765C26.5233 5.17725 25.3893 4.73005 24.4271 5.14285C23.4477 5.55565 23.001 6.69085 23.4133 7.65405L26.0937 13.9493C22.0044 15.7553 18.2759 18.0085 15.0628 20.2789L11.8841 16.4433C11.214 15.6177 10.0113 15.4973 9.18656 16.1681C8.36182 16.8389 8.24154 18.0429 8.91164 18.8685L11.9529 22.5837C5.99068 27.2621 2.31372 31.5277 1.97007 31.9233C1.3687 32.6457 1.3687 33.6949 1.97007 34.4001C2.74327 35.3117 20.9219 56.4161 43.8772 56.4161C44.9081 56.4161 45.9734 56.3645 47.0387 56.2785C48.0868 56.1925 48.8772 55.2637 48.7913 54.2145C48.6882 53.1481 47.7604 52.3741 46.7123 52.4601Z" fill="#7BBCCD"/>
<path d="M65.4745 44.7717C64.7357 44.1009 63.6189 44.1009 62.88 44.7717C62.2787 45.3221 48.1206 58.4457 48.1206 69.3333C48.1206 78.1913 55.3199 85.3981 64.1687 85.3981C73.0175 85.3981 80.2168 78.1913 80.2168 69.3333C80.234 58.4457 66.0759 45.3221 65.4745 44.7717ZM64.1859 81.5625C57.4505 81.5625 51.9694 76.0757 51.9694 69.3333C51.9694 61.8513 60.8182 52.2365 64.2031 48.8481C68.5329 53.1653 76.4195 62.4533 76.4195 69.3333C76.4023 76.0757 70.9213 81.5625 64.1859 81.5625Z" fill="#7BBCCD"/>
<path d="M60.4746 69.3333C60.4746 68.2669 59.6155 67.4241 58.5674 67.4241C57.5021 67.4241 56.6602 68.2841 56.6602 69.3333C56.6602 73.4957 60.045 76.8841 64.2031 76.8841C65.2684 76.8841 66.1103 76.0241 66.1103 74.9749C66.1103 73.9085 65.2512 73.0657 64.2031 73.0657C62.1413 73.0485 60.4746 71.3801 60.4746 69.3333Z" fill="#7BBCCD"/>
</g>
<defs>
<clipPath id="clip0">
<rect width="85.9105" height="86" fill="white" transform="translate(0.921387)"/>
</clipPath>
</defs>
</svg>
