<svg width="75" height="74" viewBox="0 0 75 74" fill="none" xmlns="http://www.w3.org/2000/svg">
<g clip-path="url(#clip0)">
<path d="M64.9554 0.517944H9.39625C4.60105 0.517944 0.693848 4.42514 0.693848 9.22034V64.7647C0.693848 69.5747 4.60105 73.4819 9.41105 73.4819H64.9554C69.7654 73.4819 73.6578 69.5747 73.6578 64.7647V9.22034C73.6578 4.42514 69.7506 0.517944 64.9554 0.517944ZM70.1798 64.7795C70.1798 67.6655 67.8266 70.0187 64.9406 70.0187H9.39625C6.51025 70.0039 4.17185 67.6655 4.17185 64.7795V60.6059H6.30305C7.26505 60.6059 8.03465 59.8215 8.03465 58.8743C8.03465 57.9123 7.25025 57.1427 6.30305 57.1427H4.17185V44.4443H6.30305C7.26505 44.4443 8.03465 43.6599 8.03465 42.7127C8.03465 41.7507 7.25025 40.9811 6.30305 40.9811H4.17185V23.3099H6.30305C7.26505 23.3099 8.03465 22.5255 8.03465 21.5783C8.03465 20.6163 7.25025 19.8467 6.30305 19.8467H4.17185V9.22034C4.17185 6.33434 6.51025 3.99594 9.39625 3.99594H64.9406C67.8266 3.99594 70.1798 6.34914 70.1798 9.23514V64.7795Z" fill="#7BBCCD"/>
<path d="M24.2704 32.2048C30.1312 32.2048 34.8968 27.4392 34.8968 21.5784C34.8968 18.0856 33.18 14.8296 30.294 12.8316C29.5096 12.284 28.4292 12.4912 27.8816 13.2756C27.334 14.06 27.5412 15.1404 28.3256 15.688C30.2644 17.0348 31.4336 19.2252 31.4336 21.5784C31.4336 25.5152 28.222 28.7268 24.2852 28.7268C20.3484 28.7268 17.1368 25.5152 17.1368 21.5784C17.1368 19.24 18.2912 17.0348 20.2448 15.688C21.0292 15.1404 21.2364 14.06 20.6888 13.2756C20.1412 12.4912 19.0608 12.284 18.2764 12.8316C15.3756 14.8148 13.644 18.0856 13.644 21.5784C13.644 27.4392 18.4244 32.2048 24.2704 32.2048Z" fill="#7BBCCD"/>
<path d="M52.3901 32.2047C55.8829 32.2047 59.1389 30.4879 61.1369 27.6019C61.6845 26.8175 61.4773 25.7371 60.6929 25.1895C59.9085 24.6419 58.8281 24.8491 58.2805 25.6335C56.9337 27.5723 54.7433 28.7415 52.3901 28.7415C48.4533 28.7415 45.2417 25.5299 45.2417 21.5931C45.2417 17.6563 48.4533 14.4447 52.3901 14.4447C54.7285 14.4447 56.9337 15.5991 58.2805 17.5527C58.8281 18.3371 59.9085 18.5443 60.6929 17.9967C61.4773 17.4491 61.6845 16.3687 61.1369 15.5843C59.1537 12.6687 55.8829 10.9519 52.3901 10.9519C46.5293 10.9519 41.7637 15.7175 41.7637 21.5783C41.7637 27.4391 46.5293 32.2047 52.3901 32.2047Z" fill="#7BBCCD"/>
<path d="M20.2151 36.1267C16.5891 36.1267 13.6587 39.0719 13.6587 42.6831C13.6587 46.3091 16.6039 49.2395 20.2151 49.2395C23.8263 49.2395 26.7715 46.2943 26.7715 42.6831C26.7715 39.0719 23.8263 36.1267 20.2151 36.1267ZM20.2151 45.7763C18.5131 45.7763 17.1219 44.3851 17.1219 42.6831C17.1219 40.9811 18.5131 39.5899 20.2151 39.5899C21.9171 39.5899 23.3083 40.9811 23.3083 42.6831C23.3083 44.3999 21.9171 45.7763 20.2151 45.7763Z" fill="#7BBCCD"/>
<path d="M44.9014 42.6978C44.9014 39.0718 41.9562 36.1414 38.345 36.1414C34.719 36.1414 31.7886 39.0866 31.7886 42.6978C31.7886 46.3238 34.7338 49.2542 38.345 49.2542C41.9562 49.2542 44.9014 46.309 44.9014 42.6978ZM38.3302 45.7762C36.6282 45.7762 35.237 44.385 35.237 42.683C35.237 40.981 36.6282 39.5898 38.3302 39.5898C40.0322 39.5898 41.4234 40.981 41.4234 42.683C41.4234 44.3998 40.0322 45.7762 38.3302 45.7762Z" fill="#7BBCCD"/>
<path d="M56.4602 36.1267C52.8342 36.1267 49.9038 39.0719 49.9038 42.6831C49.9038 46.3091 52.849 49.2395 56.4602 49.2395C60.0714 49.2395 63.0166 46.2943 63.0166 42.6831C63.0166 39.0719 60.0714 36.1267 56.4602 36.1267ZM56.4602 45.7763C54.7582 45.7763 53.367 44.3851 53.367 42.6831C53.367 40.9811 54.7582 39.5899 56.4602 39.5899C58.1622 39.5899 59.5534 40.9811 59.5534 42.6831C59.5386 44.3999 58.1622 45.7763 56.4602 45.7763Z" fill="#7BBCCD"/>
<path d="M18.4498 62.2919C20.3457 61.9834 21.6325 60.1964 21.324 58.3005C21.0156 56.4046 19.2286 55.1178 17.3327 55.4263C15.4368 55.7348 14.15 57.5218 14.4585 59.4177C14.767 61.3135 16.5539 62.6004 18.4498 62.2919Z" fill="#7BBCCD"/>
<path d="M31.6552 62.3373C33.5761 62.3373 35.1332 60.7802 35.1332 58.8593C35.1332 56.9385 33.5761 55.3813 31.6552 55.3813C29.7344 55.3813 28.1772 56.9385 28.1772 58.8593C28.1772 60.7802 29.7344 62.3373 31.6552 62.3373Z" fill="#7BBCCD"/>
<path d="M46.3607 62.0695C48.1321 61.3267 48.9659 59.2886 48.2231 57.5172C47.4804 55.7458 45.4422 54.9119 43.6708 55.6547C41.8994 56.3975 41.0655 58.4356 41.8083 60.2071C42.5511 61.9785 44.5893 62.8123 46.3607 62.0695Z" fill="#7BBCCD"/>
<path d="M61.9664 60.2205C62.7165 58.4522 61.8911 56.4106 60.1228 55.6605C58.3544 54.9104 56.3128 55.7359 55.5627 57.5042C54.8127 59.2725 55.6381 61.3141 57.4064 62.0642C59.1748 62.8143 61.2163 61.9889 61.9664 60.2205Z" fill="#7BBCCD"/>
</g>
<defs>
<clipPath id="clip0">
<rect width="74" height="74" fill="white" transform="translate(0.175781)"/>
</clipPath>
</defs>
</svg>
