<?xml version="1.0" encoding="utf-8"?>
<!-- Generator: Adobe Illustrator 24.0.2, SVG Export Plug-In . SVG Version: 6.00 Build 0)  -->
<svg version="1.1" id="Layer_1" xmlns="http://www.w3.org/2000/svg" xmlns:xlink="http://www.w3.org/1999/xlink" x="0px" y="0px"
	 viewBox="0 0 34 44" style="enable-background:new 0 0 34 44;" xml:space="preserve" width="34px">
<style type="text/css">
	.st0{fill:url(#SVGID_1_);}
	.st1{fill:#FFFFFF;}
</style>
<linearGradient id="SVGID_1_" gradientUnits="userSpaceOnUse" x1="-2633.9319" y1="-1660.9119" x2="-2281.938" y2="-1660.9119" gradientTransform="matrix(-9.658816e-02 0 0 9.658816e-02 -220.4084 182.4164)">
	<stop  offset="0" style="stop-color:#356993"/>
	<stop  offset="0.19" style="stop-color:#2B82A6"/>
	<stop  offset="0.37" style="stop-color:#2495B5"/>
	<stop  offset="0.51" style="stop-color:#219CBA"/>
	<stop  offset="1" style="stop-color:#2082A5"/>
</linearGradient>
<path class="st0" d="M0.8,20.9c0.3,0.8,0.6,1.7,1,2.6c3.6,8.4,10.9,16.8,13.9,20c0.7,0.7,1.8,0.8,2.5,0.1c0,0,0.1-0.1,0.1-0.1
	c3.3-3.5,11.8-13.3,14.9-22.5v0l0,0C36.1,12.3,31.1,0,17,0c-1.4,0-2.9,0.1-4.3,0.4c-3.1,0.6-5.6,2-7.6,3.7L4,5.3
	C0.1,9.6-0.9,15.9,0.8,20.9z"/>
<path class="st1" d="M23.1,14.6H22v-1.1c0-0.1-0.1-0.1-0.1-0.1h-1.3c-0.1,0-0.1,0.1-0.1,0.1v1.1h-1.1c-0.1,0-0.1,0.1-0.1,0.1V16
	c0,0.1,0.1,0.1,0.1,0.1h1.1v1.1c0,0.1,0.1,0.1,0.1,0.1h1.3c0.1,0,0.1-0.1,0.1-0.1v-1.1h1.1c0.1,0,0.1-0.1,0.1-0.1v-1.3
	C23.3,14.7,23.2,14.6,23.1,14.6C23.1,14.6,23.1,14.6,23.1,14.6z"/>
<path class="st1" d="M26.2,15.2L26.2,15.2c-0.8-2.2-2.5-4.6-4.3-6.5c-0.4-0.4-1-0.4-1.3,0c-0.9,1-3,3.4-4,5.9l-1.2-1.2l0,0
	c-4.6-4.4-11.3,2.2-6.9,6.9l0,0l1.3,1.3l0,0c0.1,0.1,0.4,0.4,0.6,0.6l0,0l4.3,4.3c1.1,1.1,2.9,1.1,4,0l6.2-6.2l0,0
	c0,0,0.3-0.3,0.3-0.3C26.3,18.7,26.7,16.9,26.2,15.2z M9.1,19.8c-3.7-3.8,1.8-9.4,5.7-5.7c0,0,1.3,1.3,1.4,1.4l-5.7,5.7L9.1,19.8z
	 M18.1,26c-0.8,0.8-2.1,0.8-2.8,0L11,21.7l5.1-5.1c0,0,0,0,0,0.1l0,0c0,0,0,0,0,0.1c0,0,0,0,0,0c0,0.1,0,0.1,0,0.2l0,0
	c0,0,0,0.1,0,0.1c0,0,0,0,0,0c0,0,0,0.1,0,0.1l0,0.1l0,0l0,0.1c0,0,0,0,0,0c0,0,0,0,0,0v0l0,0c0,0,0,0.1,0,0.1
	c0.1,0.4,0.2,0.8,0.3,1.1c0.4,1,1.2,1.9,2.2,2.4c0.9,0.5,2,0.7,3.1,0.6c0.3,0,0.6-0.1,0.9-0.1l0,0l0,0L18.1,26z M25.5,17.6
	c-0.1,0.7-0.5,1.4-0.9,1.9l-0.3,0.3c0,0-0.1,0-0.1,0.1l0,0l0,0l0,0c0,0-0.1,0-0.1,0.1l0,0l0,0l0,0c0,0-0.1,0-0.1,0.1c0,0,0,0-0.1,0
	c0,0-0.1,0-0.1,0.1l0,0l0,0c0,0-0.1,0-0.1,0l0,0l0,0c0,0-0.1,0-0.1,0.1c0,0-0.1,0-0.1,0l0,0c0,0-0.1,0-0.1,0.1c0,0-0.1,0-0.1,0
	c-0.1,0-0.2,0.1-0.3,0.1l0,0l0,0c0,0-0.1,0-0.1,0h0c-0.4,0.1-0.7,0.1-1.1,0.2c-0.2,0-0.5,0-0.7,0c-1.8,0-3.5-1.3-3.9-3v0
	c0-0.2-0.1-0.3-0.1-0.5c0-0.1,0-0.3,0-0.4c0,0,0,0,0,0c0,0,0,0,0,0c0,0,0,0,0,0c0-0.1,0-0.2,0-0.3c0,0,0,0,0,0c0,0,0,0,0,0
	c0,0,0,0,0,0c0-0.1,0-0.1,0-0.2c0,0,0,0,0-0.1c0,0,0,0,0,0c0,0,0-0.1,0-0.1c0,0,0,0,0,0l0,0c0,0,0,0,0,0c0,0,0,0,0,0c0,0,0,0,0,0
	c0,0,0,0,0-0.1c0-0.1,0-0.1,0.1-0.2l0,0c0,0,0,0,0,0c0,0,0,0,0-0.1l0,0l0,0v0c0.6-1.9,2.5-4.5,4.1-6.1c0,0,0.1,0,0.1,0
	c0.9,0.9,3.3,3.8,4.1,6.2l0,0C25.6,16.2,25.7,16.9,25.5,17.6L25.5,17.6z"/>
</svg>
