<svg xmlns="http://www.w3.org/2000/svg" xmlns:xlink="http://www.w3.org/1999/xlink" viewBox="0 0 352.01 455.38" width="34px">
   <defs>
      <linearGradient id="a" y1="227.69" x2="352.01" y2="227.69" gradientTransform="translate(352.01 455.38) rotate(180)" gradientUnits="userSpaceOnUse">
         <stop offset="0" stop-color="#356993"/>
         <stop offset="0.19" stop-color="#2b82a6"/>
         <stop offset="0.37" stop-color="#2495b5"/>
         <stop offset="0.51" stop-color="#219cba"/>
         <stop offset="1" stop-color="#2082a5"/>
      </linearGradient>
   </defs>
   <path d="M8.16,216.46c2.95,8.78,6.38,17.61,10.19,26.41,37.73,87.38,113.31,173.58,144.11,206.65a18.57,18.57,0,0,0,27.07,0c33.92-36.41,122.1-137.2,154.3-233.06l0-.08h0C373.71,127.33,322.38,0,176,0a220.16,220.16,0,0,0-44.15,4.35C99.65,10.9,73.56,24.56,53.36,42.64L41.27,54.72C.92,99.86-9.25,164.64,8.16,216.46Z" style="fill:url(#a)"/>
   <path d="M239.35,151.08H228.07V139.8a1.54,1.54,0,0,0-1.54-1.53H213.36a1.54,1.54,0,0,0-1.54,1.53v11.28H200.54a1.54,1.54,0,0,0-1.54,1.54V165.8a1.54,1.54,0,0,0,1.54,1.53h11.28v11.28a1.54,1.54,0,0,0,1.54,1.54h13.17a1.54,1.54,0,0,0,1.54-1.54V167.33h11.28a1.53,1.53,0,0,0,1.53-1.53V152.62A1.53,1.53,0,0,0,239.35,151.08Z" style="fill:#fff"/>
   <path d="M271,157.84h0c-.84-2.49-1.84-5.09-3-7.74-4.71-10.9-11.92-22.87-21.44-35.55a295.33,295.33,0,0,0-19.77-23.62,9.42,9.42,0,0,0-13.75,0c-9.44,10.14-31.32,35.25-41.85,60.69L159,139.41h0a50.25,50.25,0,1,0-71.07,71.07l13.85,13.84h0l3.12,3.12,2.83,2.83h0l44.46,44.47a29.21,29.21,0,0,0,41.3,0l63.82-63.82h0l3.48-3.48.08-.08A51.28,51.28,0,0,0,271,157.84ZM93.89,204.53a41.84,41.84,0,1,1,59.17-59.17l13.84,13.85-59.16,59.16Zm93.67,64.26a20.83,20.83,0,0,1-29.41,0l-44.46-44.47,52.71-52.71c0,.2,0,.39,0,.59v0c0,.21,0,.42,0,.64a1.48,1.48,0,0,1,0,.21v.7c0,.16,0,.31,0,.47v.21c0,.22,0,.45,0,.67v0c0,.21,0,.42,0,.63s0,.15,0,.22l0,.46a1.93,1.93,0,0,0,0,.24l0,.46c0,.07,0,.15,0,.22l.06.66v0l.06.64a1.5,1.5,0,0,1,0,.22c0,.15,0,.31.05.46l0,.24.06.47,0,.21c0,.22.05.45.09.67a51.69,51.69,0,0,0,3.15,11.84c.1.23.19.47.29.7a49.59,49.59,0,0,0,5.49,9.88,48.47,48.47,0,0,0,4.69,5.57,47.55,47.55,0,0,0,10.95,8.3c.43.24.87.47,1.31.7l.66.33A59,59,0,0,0,220,224.11c1.41,0,2.82,0,4.21-.13a64.68,64.68,0,0,0,9-1.17h0l.46-.1Zm76.77-87a41.58,41.58,0,0,1-9.65,19.88l-3.21,3.21-.24.21-.24.21-.27.24-.25.21-.28.22-.25.21-.28.22-.26.2-.28.22-.26.19-.29.22-.26.19-.3.21-.26.18-.3.21-.27.18-.3.2-.27.17-.31.2-.27.17-.31.19-.28.16-.31.19-.28.16-.32.18-.28.16-.33.17-.28.16-.33.17-.29.15-.32.16-.3.15-.33.15-.3.14-.33.15-.31.15-.32.14-.33.14-.31.13-.34.14-.31.12-.35.14-.3.12-.36.13-.3.11-.37.13-.29.1-.39.13-.27.09-.42.14-.25.08-.44.13-.22.06-.48.14-.18.05-.53.15-.09,0c-.92.24-1.84.46-2.79.65a56.83,56.83,0,0,1-8.47,1.06c-1,0-2,.08-3.07.08-1.34,0-2.65,0-3.95-.12a48.9,48.9,0,0,1-18.82-4.79,39.11,39.11,0,0,1-14.52-12.28l-.36-.51a42.1,42.1,0,0,1-6.2-13.73v-.07a42.57,42.57,0,0,1-.86-4.39l-.06-.42,0-.2c0-.1,0-.2,0-.3l0-.31c0-.1,0-.2,0-.29l0-.33,0-.28,0-.34c0-.09,0-.18,0-.27l0-.35c0-.09,0-.18,0-.27s0-.23,0-.35,0-.17,0-.26,0-.24,0-.36a2.09,2.09,0,0,1,0-.25c0-.12,0-.25,0-.37a2.17,2.17,0,0,1,0-.26c0-.12,0-.24,0-.35v-1.49c0-.12,0-.24,0-.36s0-.17,0-.26,0-.23,0-.35,0-.18,0-.26,0-.24,0-.35a2.45,2.45,0,0,1,0-.27c0-.11,0-.23,0-.34a2.45,2.45,0,0,1,0-.27c0-.11,0-.22,0-.34l0-.26,0-.34,0-.27,0-.34,0-.26c0-.12,0-.23.05-.34l0-.27c0-.11,0-.22,0-.33a2.51,2.51,0,0,1,0-.27c0-.11,0-.22,0-.33s0-.18,0-.27,0-.21,0-.32a2.56,2.56,0,0,0,.05-.27l.06-.32a2.74,2.74,0,0,0,0-.28c0-.1,0-.21.07-.31a2.74,2.74,0,0,1,0-.28c0-.1.05-.21.07-.31l.06-.28c0-.1.05-.2.07-.3s0-.19.07-.28,0-.2.07-.3.05-.19.07-.28.06-.2.08-.3,0-.19.08-.28.05-.2.08-.29.05-.19.08-.28l.09-.29a2.29,2.29,0,0,1,.08-.28l.09-.29.09-.28.09-.26.07-.19v-.1c3.78-11.14,10.78-23.79,20.81-37.6a287.85,287.85,0,0,1,21.5-26,1,1,0,0,1,1.43,0c8.49,9.1,29.33,32.86,39.65,56.77,1.05,2.43,2,4.81,2.73,7.08h0A42.09,42.09,0,0,1,264.33,181.78Z" style="fill:#fff"/>
</svg>